<?xml version="1.0" encoding="utf-8"?>
<!-- Generator: Adobe Illustrator 22.0.1, SVG Export Plug-In . SVG Version: 6.00 Build 0)  -->
<svg version="1.1" id="图层_1" xmlns="http://www.w3.org/2000/svg" xmlns:xlink="http://www.w3.org/1999/xlink" x="0px" y="0px"
	 viewBox="0 0 28 29" style="enable-background:new 0 0 28 29;" xml:space="preserve">
<title>Group 2</title>
<desc>Created with Sketch.</desc>
<g id="Page-1" style="fill:#00A1D6">
	<g id="封面">
		<g id="Group-2">
			<g id="Rectangle-5">
				<path d="M3.3,28.3C1.5,28.3,0,26.9,0,25V10.1c0-1.8,1.5-3.3,3.3-3.3s3.3,1.5,3.3,3.3V25C6.7,26.9,5.2,28.3,3.3,28.3z M3.3,8
					c-1.2,0-2.1,1-2.1,2.1V25c0,1.2,1,2.1,2.1,2.1s2.1-1,2.1-2.1V10.1C5.5,8.9,4.5,8,3.3,8z"/>
			</g>
			<g id="Rectangle-5_1_">
				<path d="M14,28.4c-1.8,0-3.3-1.5-3.3-3.3V3.3C10.7,1.5,12.2,0,14,0s3.3,1.5,3.3,3.3V25C17.3,26.9,15.8,28.4,14,28.4z M14,1.2
					c-1.2,0-2.1,1-2.1,2.1V25c0,1.2,1,2.1,2.1,2.1c1.2,0,2.1-1,2.1-2.1V3.3C16.1,2.2,15.2,1.2,14,1.2z"/>
			</g>
			<g id="Rectangle-5_2_">
				<path d="M24.7,28.4c-1.8,0-3.3-1.5-3.3-3.3v-6.8c0-1.8,1.5-3.3,3.3-3.3s3.3,1.5,3.3,3.3V25C28,26.9,26.5,28.4,24.7,28.4z
					 M24.7,16.1c-1.2,0-2.1,1-2.1,2.1V25c0,1.2,1,2.1,2.1,2.1s2.1-1,2.1-2.1v-6.8C26.8,17,25.8,16.1,24.7,16.1z"/>
			</g>
		</g>
	</g>
</g>
</svg>
